<svg width="89" height="20" viewBox="0 0 89 20" fill="none" xmlns="http://www.w3.org/2000/svg">
<g clip-path="url(#clip0_610_210)">
<path d="M27.9196 16.964V2.79138H33.2189C34.3659 2.79138 35.3096 2.97843 36.0646 3.35253C36.8196 3.72663 37.3713 4.24462 37.7342 4.90649C38.0972 5.56836 38.286 6.31656 38.286 7.13671C38.286 7.95685 38.1117 8.63311 37.7488 9.29498C37.3858 9.95685 36.8486 10.4748 36.0936 10.8777C35.3386 11.2806 34.3804 11.482 33.2044 11.482H30.5329V16.964H27.9196ZM30.5329 9.36692H33.0447C33.9594 9.36692 34.6127 9.16548 35.0192 8.76261C35.4258 8.35973 35.629 7.81296 35.629 7.13671C35.629 6.46045 35.4258 5.88491 35.0192 5.48203C34.6127 5.07915 33.9594 4.87771 33.0447 4.87771H30.5329V9.36692Z" fill="#F8FAFC"/>
<path d="M40.2605 16.964V6.92088H42.5835L42.8303 8.80577C43.1933 8.15829 43.7015 7.6403 44.3403 7.25181C44.9791 6.86332 45.7196 6.67627 46.5762 6.67627V9.41009H45.8357C45.2695 9.41009 44.7468 9.49642 44.2967 9.66908C43.8466 9.84174 43.4982 10.1439 43.2514 10.5756C43.0045 11.0072 42.8739 11.6115 42.8739 12.3741V16.9497H40.2605V16.964Z" fill="#F8FAFC"/>
<path d="M53.037 17.2086C52.0497 17.2086 51.1786 16.9784 50.3946 16.5468C49.6106 16.1151 48.9863 15.482 48.5362 14.6907C48.0861 13.8993 47.8538 12.9928 47.8538 11.9425C47.8538 10.8921 48.0861 9.98563 48.5507 9.19426C49.0153 8.40289 49.6396 7.78419 50.4236 7.33814C51.2076 6.8921 52.0933 6.67627 53.066 6.67627C54.0388 6.67627 54.9099 6.8921 55.6939 7.33814C56.478 7.78419 57.1023 8.40289 57.5523 9.19426C58.0024 9.98563 58.2347 10.8921 58.2347 11.9425C58.2347 12.9928 58.0024 13.8993 57.5523 14.6907C57.1023 15.482 56.478 16.1007 55.6794 16.5468C54.8809 16.9928 54.0098 17.2086 53.037 17.2086ZM53.037 14.964C53.7194 14.964 54.3147 14.7051 54.8083 14.2015C55.3165 13.6979 55.5633 12.9497 55.5633 11.9425C55.5633 10.9353 55.3165 10.1871 54.8083 9.68347C54.3001 9.17987 53.7194 8.92088 53.0515 8.92088C52.3837 8.92088 51.7594 9.17987 51.2657 9.68347C50.7721 10.1871 50.5253 10.9497 50.5253 11.9425C50.5253 12.9353 50.7721 13.6979 51.2657 14.2015C51.7594 14.7051 52.3546 14.964 53.037 14.964Z" fill="#F8FAFC"/>
<path d="M60.5577 16.964V6.92088H62.8662L63.0985 8.2734C63.4179 7.78419 63.8535 7.3957 64.3907 7.10793C64.9279 6.82016 65.5522 6.67627 66.2636 6.67627C67.8316 6.67627 68.9351 7.28059 69.5884 8.47483C69.9514 7.92807 70.445 7.48203 71.0693 7.15109C71.6936 6.82016 72.3615 6.66189 73.1019 6.66189C74.4231 6.66189 75.4395 7.05037 76.1509 7.84174C76.8623 8.61872 77.2107 9.7698 77.2107 11.2806V16.9497H74.5974V11.5252C74.5974 10.6619 74.4377 10 74.1037 9.53958C73.7698 9.07915 73.2616 8.84894 72.5647 8.84894C71.8678 8.84894 71.2871 9.10793 70.8515 9.62591C70.4305 10.1439 70.2127 10.8489 70.2127 11.7698V16.9497H67.5993V11.5252C67.5993 10.6619 67.4251 10 67.0912 9.53958C66.7572 9.07915 66.22 8.84894 65.5231 8.84894C64.8262 8.84894 64.26 9.10793 63.839 9.62591C63.4179 10.1439 63.2001 10.8489 63.2001 11.7698V16.9497H60.5868L60.5577 16.964Z" fill="#F8FAFC"/>
<path d="M83.1925 17.2086C82.3214 17.2086 81.6099 17.0648 81.0437 16.7914C80.492 16.518 80.0709 16.1439 79.7951 15.6835C79.5192 15.223 79.3886 14.7194 79.3886 14.1583C79.3886 13.223 79.7515 12.4748 80.492 11.8849C81.2324 11.3094 82.3359 11.0216 83.8023 11.0216H86.3721V10.777C86.3721 10.0863 86.1688 9.58275 85.7768 9.25181C85.3848 8.92088 84.8912 8.76261 84.3104 8.76261C83.7732 8.76261 83.3231 8.8921 82.9166 9.13671C82.5246 9.38131 82.2778 9.75541 82.1762 10.2446H79.6209C79.6935 9.51081 79.9403 8.87771 80.3613 8.34534C80.7824 7.79858 81.3486 7.3957 82.031 7.09354C82.7134 6.80577 83.4683 6.66189 84.3249 6.66189C85.7623 6.66189 86.9093 7.0216 87.7369 7.74102C88.5644 8.46045 88.9855 9.46764 88.9855 10.777V16.9497H86.7641L86.5173 15.3238C86.2124 15.8705 85.7913 16.3022 85.2541 16.6619C84.7169 17.0072 84.02 17.1943 83.178 17.1943L83.1925 17.2086ZM83.7877 15.1799C84.5427 15.1799 85.1235 14.9353 85.53 14.4461C85.9365 13.9569 86.2124 13.3525 86.314 12.6475H84.0926C83.3957 12.6475 82.9021 12.777 82.5972 13.0216C82.2923 13.2662 82.1471 13.5827 82.1471 13.9425C82.1471 14.3309 82.2923 14.6331 82.5972 14.8489C82.9021 15.0648 83.2941 15.1799 83.7877 15.1799Z" fill="#F8FAFC"/>
<path d="M10.0905 0C4.52985 0 0 4.48921 0 10V15.3813H10.0905C13.0814 15.3813 15.5206 12.964 15.5206 10C15.5206 7.03597 13.0814 4.61871 10.0905 4.61871C7.09967 4.61871 4.66052 7.03597 4.66052 10V13.8417H1.55351V10C1.55351 5.33813 5.38646 1.53957 10.0905 1.53957C14.7946 1.53957 18.6276 5.33813 18.6276 10C18.6276 14.6619 14.7946 18.4604 10.0905 18.4604H6.21403V16.9209H4.66052V20H10.0905C15.6512 20 20.1811 15.5108 20.1811 10C20.1811 4.48921 15.6512 0 10.0905 0ZM6.21403 10C6.21403 7.88489 7.95628 6.15827 10.0905 6.15827C12.2248 6.15827 13.967 7.88489 13.967 10C13.967 12.1151 12.2248 13.8417 10.0905 13.8417H6.21403V10Z" fill="#38BDF8"/>
</g>
<defs>
<clipPath id="clip0_610_210">
<rect width="89" height="20" fill="white"/>
</clipPath>
</defs>
</svg>
